<?xml version="1.0" encoding="utf-8"?>
<!-- Generator: Adobe Illustrator 16.0.0, SVG Export Plug-In . SVG Version: 6.00 Build 0)  -->
<!DOCTYPE svg PUBLIC "-//W3C//DTD SVG 1.1//EN" "http://www.w3.org/Graphics/SVG/1.1/DTD/svg11.dtd">
<svg version="1.1" id="圖層_1" xmlns="http://www.w3.org/2000/svg" xmlns:xlink="http://www.w3.org/1999/xlink" x="0px" y="0px"
	 width="80px" height="80px" viewBox="0 0 80 80" enable-background="new 0 0 80 80" xml:space="preserve">
<g>
	<circle fill="#58C0CF" cx="40" cy="39.999" r="40"/>
	<g>
		<path fill="#FFFFFF" d="M41.135,33.399c-0.73-0.732-0.945-1.914-0.967-2.973c2.639-3.346,3.769-6.886,0.079-10.574
			c-3.207-3.208-9.088-5.106-13.678-4.414c-0.253,0.037-0.467,0.196-0.579,0.418l-0.031,0.043c-0.438,0.573-0.262,0.96-0.038,1.184
			l5.503,5.504c0.796,0.796,1.479,1.823,1.102,2.201l-3.303,3.303c-0.593,0.593-1.857,0.343-2.476-0.275l-5.691-5.702
			c-0.208-0.208-0.515-0.281-0.794-0.188c-0.28,0.09-0.482,0.333-0.526,0.622c-0.683,4.528,1.196,10.186,4.466,13.454
			c3.396,3.398,6.721,2.613,9.898,0.322c1.098,0.002,2.379,0.192,3.183,0.929l12.722,12.72c0,0,1.184,1.153,1.714,3.262
			c-0.575,2.502,0.103,5.232,2.052,7.182c3.01,3.01,7.888,3.01,10.896,0c3.01-3.009,3.01-7.888,0-10.896
			c-2.172-2.173-5.316-2.768-8.031-1.803c-1.807-0.578-2.779-1.597-2.779-1.597L41.135,33.399z"/>
		<path fill="#FFFFFF" d="M38.293,49.386c0.113-0.115,0.213-0.238,0.299-0.367c0.085-0.13,0.156-0.267,0.213-0.406
			c0.059-0.142,0.1-0.286,0.129-0.433c0.029-0.147,0.043-0.297,0.043-0.446c0-0.148-0.014-0.299-0.043-0.445
			c-0.028-0.147-0.072-0.292-0.129-0.434c-0.057-0.14-0.128-0.275-0.213-0.406c-0.086-0.129-0.186-0.252-0.299-0.365l-0.619-0.619
			l-0.482-0.482l15.096-15.094c1.184,0.436,2.532,0.222,3.48-0.725c1.031-1.031,1.931-2.276,2.777-3.463
			c0.699-0.982,1.415-2.209,1.327-3.468c-0.04-0.58-0.333-1.114-0.622-1.511c-0.161-0.218-0.273-0.272-0.273-0.272
			c-0.381-0.31-0.93-0.582-1.51-0.622c-1.258-0.088-2.486,0.628-3.467,1.328c-1.188,0.847-2.433,1.744-3.463,2.777
			c-0.835,0.835-1.121,2.004-0.876,3.076L34.44,42.229l-0.481-0.481l-0.619-0.619c-0.115-0.114-0.237-0.213-0.367-0.3
			c-0.13-0.084-0.266-0.155-0.406-0.213c-0.141-0.057-0.285-0.1-0.433-0.127c-0.146-0.03-0.296-0.044-0.445-0.044
			s-0.3,0.014-0.446,0.044c-0.146,0.027-0.292,0.069-0.433,0.127s-0.276,0.129-0.406,0.213c-0.13,0.087-0.252,0.186-0.366,0.3
			l-0.31,4.781l-4.231-0.241l-2.27,2.271l0.481-0.481l-2.271,2.271l-2.271,2.271l-2.271,2.271l-2.27,2.271
			c-0.114,0.113-0.213,0.236-0.299,0.365c-0.085,0.13-0.157,0.266-0.214,0.406s-0.1,0.286-0.128,0.433
			c-0.029,0.147-0.042,0.298-0.042,0.446c0,0.15,0.014,0.299,0.042,0.446c0.028,0.147,0.072,0.292,0.128,0.433
			s0.128,0.277,0.213,0.406c0.086,0.129,0.186,0.252,0.3,0.366l0.619,0.619l0.619,0.619l0.62,0.619l0.619,0.62l0.619,0.618
			l0.619,0.619l0.619,0.619l0.619,0.619c0.113,0.114,0.236,0.214,0.365,0.3c0.131,0.084,0.267,0.156,0.407,0.213
			s0.285,0.1,0.433,0.129c0.147,0.028,0.297,0.042,0.445,0.042c0.15,0,0.3-0.014,0.447-0.042c0.146-0.029,0.292-0.072,0.432-0.129
			c0.141-0.057,0.277-0.129,0.406-0.213c0.13-0.086,0.253-0.186,0.366-0.3l2.271-2.271l2.271-2.27l2.271-2.271l2.271-2.271
			l-0.481,0.481l2.27-2.271l-0.137-4.609L38.293,49.386z"/>
	</g>
</g>
</svg>
